<svg xmlns="http://www.w3.org/2000/svg" viewBox="0 0 512 512" role="img" aria-labelledby="title desc">
  <title id="title">St. Louis Water Damage Help icon</title>
  <desc id="desc">A water drop and house shield mark for St. Louis water damage help.</desc>
  <defs>
    <linearGradient id="bg" x1="82" y1="54" x2="430" y2="458" gradientUnits="userSpaceOnUse">
      <stop offset="0" stop-color="#5fd6e7"/>
      <stop offset="0.52" stop-color="#0b7285"/>
      <stop offset="1" stop-color="#104e64"/>
    </linearGradient>
    <linearGradient id="drop" x1="202" y1="116" x2="330" y2="366" gradientUnits="userSpaceOnUse">
      <stop offset="0" stop-color="#f1fbff"/>
      <stop offset="1" stop-color="#8cecff"/>
    </linearGradient>
    <filter id="shadow" x="-20%" y="-20%" width="140%" height="140%">
      <feDropShadow dx="0" dy="18" stdDeviation="18" flood-color="#052b34" flood-opacity="0.32"/>
    </filter>
  </defs>
  <rect width="512" height="512" rx="112" fill="url(#bg)"/>
  <path d="M101 250c0-78 63-141 141-141h28c78 0 141 63 141 141v75c0 19-15 34-34 34H135c-19 0-34-15-34-34v-75Z" fill="#06242c" opacity="0.22"/>
  <path d="M94 236 256 106l162 130v171a37 37 0 0 1-37 37H131a37 37 0 0 1-37-37V236Z" fill="#f6fdff" filter="url(#shadow)"/>
  <path d="M72 244 256 96l184 148" fill="none" stroke="#06242c" stroke-opacity="0.85" stroke-width="38" stroke-linecap="round" stroke-linejoin="round"/>
  <path d="M167 260h178v159H167z" fill="#0d3e4b"/>
  <path d="M256 148c-12 34-68 99-68 150 0 44 31 78 68 78s68-34 68-78c0-51-56-116-68-150Z" fill="url(#drop)" stroke="#06242c" stroke-width="16" stroke-linejoin="round"/>
  <path d="M230 284c0 27 16 48 39 55" fill="none" stroke="#ffffff" stroke-width="18" stroke-linecap="round" opacity="0.82"/>
  <path d="M154 420h204" stroke="#ffcf5d" stroke-width="28" stroke-linecap="round"/>
</svg>
